<svg width="31" height="31" viewBox="0 0 31 31" fill="none" xmlns="http://www.w3.org/2000/svg">
<g clip-path="url(#clip0_1_1585)">
<path d="M31 10.075L8.3209 19.7315C6.44024 20.528 4.86096 20.9262 3.58307 20.9262C2.1364 20.9262 1.08714 20.4195 0.435279 19.4059C0.026251 18.755 -0.0943046 17.9291 0.0736121 16.9285C0.24239 15.9279 0.688446 14.861 1.41178 13.7278C2.01456 12.8107 3.00354 11.6051 4.37874 10.1111C3.91168 10.8454 3.56949 11.652 3.36607 12.4981C3.0044 14.0412 3.3299 15.1744 4.34257 15.8978C4.82479 16.2353 5.48785 16.4041 6.33174 16.4041C7.00599 16.4041 7.76549 16.2956 8.61024 16.0786L31 10.075Z" fill="#262626"/>
</g>
<defs>
<clipPath id="clip0_1_1585">
<rect width="31" height="31" fill="white"/>
</clipPath>
</defs>
</svg>
