<svg width="32" height="31" viewBox="0 0 32 31" fill="none" xmlns="http://www.w3.org/2000/svg">
<g clip-path="url(#clip0_1_1595)">
<path d="M30.8642 3.88533C30.3256 3.19687 29.384 3.74841 28.9694 3.98866C26.0192 5.72724 25.5839 8.78849 24.5557 10.5465C23.7472 11.9544 22.4219 12.9877 21.2232 13.0678C20.3372 13.1311 19.3762 12.9593 18.4229 12.5447C16.0889 11.5359 14.8321 10.23 14.526 10.0001C13.8969 9.52216 9.0622 4.81403 5.12262 4.62158C5.12262 4.62158 4.64212 3.65283 4.52199 3.63603C4.23524 3.60374 3.94074 4.21858 3.72633 4.28316C3.53258 4.35162 3.19287 3.62183 2.99654 3.65412C2.79891 3.67995 2.60645 4.41103 2.22154 4.78691C1.93737 5.06203 1.59379 5.04524 1.39874 5.38495C1.33158 5.50895 1.35483 5.72724 1.27862 5.92745C1.11458 6.34078 0.56691 6.3847 0.561744 6.82774C0.561744 7.31987 1.02287 7.41416 1.42587 7.75774C1.7462 8.03158 1.76816 8.22533 2.14145 8.3532C2.4747 8.46687 2.95779 8.11166 3.38662 8.23953C3.74441 8.34416 4.08799 8.42037 4.1642 8.78591C4.23395 9.11658 4.1642 9.63583 3.72504 9.5777C3.58037 9.55833 2.95262 9.35295 2.17762 9.43562C1.24116 9.53508 0.17166 9.83474 0.0670353 10.8694C0.014077 11.4467 0.730952 12.1223 1.42974 11.988C1.90895 11.8962 1.68291 11.3344 1.94512 11.0631C2.28999 10.7144 4.23395 12.2825 6.04228 12.2825C6.80824 12.2825 7.37399 12.0887 7.93716 11.501C7.98883 11.4635 8.05728 11.3692 8.13737 11.3589C8.22746 11.3814 8.31277 11.4199 8.38924 11.4726C9.85012 12.6312 10.9519 14.9601 16.3072 14.9872C17.0589 14.9962 17.9217 15.3476 18.627 15.9908C19.247 16.5501 19.6138 17.444 19.9665 18.3481C20.5064 19.7082 21.4661 21.0206 22.927 22.4853C23.0045 22.5732 24.2057 23.4928 24.2961 23.5613C24.3116 23.5742 24.4046 23.777 24.3646 23.8907C24.3387 24.7819 24.2057 27.3394 26.1277 27.4466C26.6005 27.4725 26.4829 27.1482 26.4829 26.917C26.4764 26.4766 26.399 26.0322 26.6289 25.5737C26.9557 24.9563 25.9495 24.6579 25.9714 23.3055C25.996 22.2929 25.1383 22.4647 24.7004 21.691C24.455 21.2479 24.2251 21.0038 24.2483 20.469C24.3426 17.3949 23.5805 15.3695 23.2085 14.88C22.9153 14.5002 22.6622 14.3595 22.9412 14.1825C24.5428 13.1298 24.911 12.1494 24.911 12.1494C25.7635 10.159 26.5333 8.34545 27.5912 7.53816C27.8056 7.38316 28.352 6.96983 28.6917 6.81483C29.6772 6.34724 30.2068 6.06824 30.4845 5.79699C30.9443 5.3617 31.3047 4.43687 30.8642 3.88533Z" fill="black"/>
</g>
<defs>
<clipPath id="clip0_1_1595">
<rect width="31" height="31" fill="white" transform="translate(0.0644531)"/>
</clipPath>
</defs>
</svg>
