<svg width="32" height="9" viewBox="0 0 32 9" fill="none" xmlns="http://www.w3.org/2000/svg">
<path d="M19.5682 3.82824C23.1242 2.40741 25.3381 1.59108 31.2048 0.159912C28.0183 0.370454 20.9722 0.853537 16.1156 1.80162L19.5682 3.82954M8.51154 8.54541H13.1615C14.0825 7.15041 14.9983 6.471 16.0652 5.71537C15.2549 5.40199 14.4402 5.10014 13.6214 4.80991C10.6544 6.11966 9.00367 7.87762 8.51542 8.54541M9.43121 3.47175C5.28496 4.95329 2.98063 6.5627 1.42417 8.54541H6.55854C7.05842 7.8492 8.96363 5.84195 12.5428 4.44566C11.5125 4.09808 10.4759 3.77336 9.43121 3.47175ZM11.5586 0.351078H0.204834C11.6516 2.41775 17.1683 5.07858 26.0382 8.83991C25.28 8.27287 13.0556 1.07312 11.5599 0.351078" fill="black"/>
</svg>
